<svg width="29" height="28" viewBox="0 0 29 28" fill="none" xmlns="http://www.w3.org/2000/svg">
<g clip-path="url(#clip0_1_380)">
<path d="M8.76882 27.1965C8.22951 26.8377 7.75153 26.3944 7.35325 25.8835C6.91514 25.3562 6.50922 24.803 6.13769 24.2269C5.26585 22.9496 4.58213 21.5537 4.1075 20.0819C3.53734 18.3722 3.26123 16.7335 3.26123 15.1308C3.26123 13.3408 3.64846 11.7782 4.40583 10.4652C4.96726 9.4389 5.7927 8.58129 6.79676 7.98106C7.76981 7.37668 8.88785 7.04593 10.0331 7.02366C10.434 7.02366 10.8657 7.08179 11.3239 7.19292C11.653 7.28609 12.0539 7.43312 12.5437 7.61605C13.1669 7.85626 13.5096 8.00329 13.6259 8.03919C13.9909 8.17254 14.2978 8.23067 14.5388 8.23067C14.7218 8.23067 14.9799 8.17254 15.2731 8.08364C15.4381 8.02551 15.7493 7.92293 16.1946 7.73231C16.6357 7.5716 16.9828 7.43398 17.2589 7.3314C17.682 7.2066 18.0915 7.09119 18.4565 7.03307C18.8892 6.96485 19.3283 6.94678 19.7652 6.97921C20.5222 7.02869 21.2679 7.18912 21.9783 7.45535C23.14 7.92293 24.0795 8.65295 24.7787 9.6907C24.4832 9.87286 24.2058 10.083 23.9504 10.3181C23.3944 10.811 22.9209 11.3896 22.5476 12.032C22.0598 12.91 21.8069 13.899 21.8134 14.9034C21.8313 16.1369 22.1476 17.2234 22.7708 18.1628C23.2289 18.8591 23.8243 19.4545 24.5206 19.9126C24.877 20.1528 25.1839 20.3178 25.478 20.4289C25.3403 20.8563 25.1933 21.2701 25.0198 21.6804C24.6262 22.6005 24.1492 23.4827 23.5948 24.3158C23.1007 25.033 22.7135 25.5672 22.4194 25.9228C21.9612 26.4657 21.5201 26.8802 21.0748 27.1692C20.585 27.494 20.0063 27.6675 19.4182 27.6675C19.0199 27.6828 18.6217 27.6346 18.2385 27.5248C17.9094 27.4136 17.5837 27.2931 17.2632 27.1555C16.9299 27.0024 16.5863 26.873 16.2348 26.7683C15.3661 26.5451 14.4552 26.5437 13.5857 26.764C13.2293 26.8666 12.8865 26.9862 12.548 27.1333C12.0718 27.3333 11.7556 27.4675 11.5726 27.5248C11.2076 27.6316 10.8289 27.6983 10.446 27.7205C9.85359 27.7205 9.30138 27.5513 8.75429 27.2085L8.76882 27.1965ZM16.5819 6.15517C15.8074 6.5424 15.068 6.70738 14.3337 6.65353C14.2183 5.91411 14.3337 5.1576 14.6406 4.32928C14.9018 3.62753 15.2879 2.97882 15.78 2.41448C16.2998 1.8204 16.9305 1.33346 17.6367 0.980952C18.389 0.59372 19.1061 0.384289 19.7917 0.353516C19.8806 1.12798 19.7917 1.88962 19.5071 2.71281C19.2436 3.44051 18.8583 4.11808 18.3676 4.71651C17.8667 5.3114 17.252 5.80024 16.5596 6.15431L16.5819 6.15517Z" fill="black"/>
</g>
<defs>
<clipPath id="clip0_1_380">
<rect width="27.3542" height="27.3542" fill="white" transform="translate(0.701172 0.354248)"/>
</clipPath>
</defs>
</svg>
