<svg width="29" height="28" viewBox="0 0 29 28" fill="none" xmlns="http://www.w3.org/2000/svg">
<path d="M7.5673 16.6254L6.7017 19.8568L3.53795 19.9237C2.59245 18.17 2.05615 16.1636 2.05615 14.0314C2.05615 11.9696 2.55758 10.0252 3.4464 8.31323H3.44708L6.2637 8.82962L7.49756 11.6293C7.23932 12.3822 7.09856 13.1904 7.09856 14.0314C7.09866 14.9441 7.26399 15.8186 7.5673 16.6254Z" fill="#FBBB00"/>
<path d="M26.7063 11.7085C26.8491 12.4606 26.9236 13.2374 26.9236 14.0313C26.9236 14.9214 26.83 15.7898 26.6517 16.6273C26.0464 19.4775 24.4648 21.9663 22.2739 23.7275L22.2733 23.7269L18.7256 23.5458L18.2235 20.4114C19.6772 19.5588 20.8134 18.2246 21.4118 16.6273H14.7632V11.7085H21.5088H26.7063Z" fill="#518EF8"/>
<path d="M22.2734 23.727L22.2741 23.7277C20.1433 25.4404 17.4365 26.4652 14.49 26.4652C9.75495 26.4652 5.63817 23.8186 3.53809 19.9238L7.56744 16.6255C8.61746 19.4278 11.3208 21.4227 14.49 21.4227C15.8522 21.4227 17.1284 21.0545 18.2235 20.4116L22.2734 23.727Z" fill="#28B446"/>
<path d="M22.4262 4.46013L18.3982 7.75779C17.2648 7.04936 15.9251 6.64011 14.4898 6.64011C11.2488 6.64011 8.49492 8.7265 7.4975 11.6293L3.44697 8.31323H3.44629C5.51563 4.32351 9.68433 1.59766 14.4898 1.59766C17.5066 1.59766 20.2728 2.6723 22.4262 4.46013Z" fill="#F14336"/>
</svg>
