<svg width="24" height="22" viewBox="0 0 24 22" fill="none" xmlns="http://www.w3.org/2000/svg">
<path d="M22.5106 9.79902V19.8386C22.5106 20.3125 22.337 20.7271 21.9897 21.0825C21.6425 21.4379 21.2375 21.6156 20.7745 21.6156H3.3852C2.92226 21.6156 2.51718 21.4379 2.16998 21.0825C1.82277 20.7271 1.64917 20.3125 1.64917 19.8386V9.79902C1.10906 9.32517 0.752212 8.74274 0.578608 8.05171C0.405005 7.36069 0.424294 6.66966 0.636476 5.97863L1.88064 1.98056C2.03495 1.44748 2.305 1.03287 2.69079 0.736711C3.07658 0.440557 3.52023 0.29248 4.02175 0.29248H20.0222C20.5623 0.29248 21.0349 0.445493 21.44 0.751519C21.8451 1.05754 22.1248 1.46722 22.2791 1.98056L23.5522 5.97863C23.7644 6.66966 23.7788 7.36069 23.5956 8.05171C23.4123 8.74274 23.0507 9.32517 22.5106 9.79902ZM14.6984 8.88094C15.2578 8.88094 15.7304 8.69338 16.1162 8.31825C16.5019 7.94312 16.6563 7.48902 16.5791 6.95594L15.8557 2.0694H12.9623V6.95594C12.9623 7.46928 13.1263 7.91844 13.4542 8.30344C13.7821 8.68844 14.1969 8.88094 14.6984 8.88094ZM9.28773 8.88094C9.82784 8.88094 10.286 8.69338 10.6621 8.31825C11.0382 7.94312 11.2263 7.48902 11.2263 6.95594V2.0694H8.33291L7.60956 6.95594C7.53241 7.46928 7.66743 7.91844 8.01464 8.30344C8.36185 8.68844 8.78621 8.88094 9.28773 8.88094ZM4.02175 8.88094C4.48469 8.88094 4.88495 8.71806 5.22251 8.39229C5.56007 8.06652 5.75779 7.66671 5.81566 7.19286L6.56794 2.0694H3.67454L2.34358 6.39325C2.15069 7.0053 2.22785 7.57293 2.57505 8.09613C2.92226 8.61934 3.40449 8.88094 4.02175 8.88094ZM20.138 8.88094C20.7552 8.88094 21.2423 8.62428 21.5991 8.11094C21.956 7.59761 22.038 7.02504 21.8451 6.39325L20.5141 2.0694H17.6207L18.373 7.19286C18.4309 7.66671 18.6286 8.06652 18.9662 8.39229C19.3037 8.71806 19.6943 8.88094 20.138 8.88094ZM3.3852 19.8386H20.7745V10.6283C20.7938 10.648 20.7311 10.6579 20.5865 10.6579H20.138C19.6557 10.6579 19.1976 10.5542 18.7636 10.3469C18.3296 10.1396 17.9004 9.81876 17.476 9.3844C17.1674 9.77928 16.7816 10.0902 16.3187 10.3173C15.8557 10.5443 15.3446 10.6579 14.7852 10.6579C14.2065 10.6579 13.7098 10.574 13.2951 10.4061C12.8804 10.2383 12.4801 9.95697 12.0943 9.5621C11.805 9.91748 11.4385 10.189 10.9948 10.3765C10.5512 10.5641 10.0497 10.6579 9.49027 10.6579C8.8923 10.6579 8.36185 10.5493 7.8989 10.3321C7.43596 10.1149 7.04053 9.79902 6.71261 9.3844C6.24967 9.79902 5.79637 10.1149 5.35271 10.3321C4.90906 10.5493 4.46541 10.6579 4.02175 10.6579H3.63114C3.50576 10.6579 3.42378 10.648 3.3852 10.6283V19.8386Z" fill="black"/>
</svg>
