<svg width="110" height="110" viewBox="0 0 110 110" fill="none" xmlns="http://www.w3.org/2000/svg">
<g clip-path="url(#clip0_1_5252)">
<path d="M105.525 55.4117C107.212 53.4481 108.393 51.1027 108.968 48.579C109.542 46.0553 109.493 43.4295 108.823 40.9295C108.153 38.4294 106.883 36.1305 105.123 34.2323C103.364 32.3341 101.168 30.8939 98.7256 30.0365C99.2041 27.4928 99.0547 24.8706 98.2904 22.3977C97.526 19.9247 96.1699 17.6756 94.3395 15.8454C92.5091 14.0153 90.2598 12.6594 87.7867 11.8954C85.3137 11.1314 82.6916 10.9823 80.1479 11.4612C79.2912 9.01842 77.8512 6.82172 75.953 5.06176C74.0547 3.30179 71.7556 2.03178 69.2551 1.36196C66.7547 0.692151 64.1286 0.642793 61.6047 1.21817C59.0809 1.79355 56.7357 2.97628 54.7726 4.66367C52.809 2.97744 50.4636 1.79578 47.9399 1.22119C45.4162 0.646609 42.7904 0.696455 40.2903 1.3664C37.7903 2.03635 35.4914 3.30617 33.5932 5.06571C31.695 6.82524 30.2547 9.02135 29.3974 11.4635C26.8538 10.9854 24.232 11.1352 21.7593 11.8997C19.2867 12.6642 17.0379 14.0205 15.2081 15.8508C13.3782 17.6811 12.0225 19.9302 11.2586 22.4031C10.4947 24.8759 10.3457 27.4978 10.8244 30.0413C8.38223 30.8986 6.18611 32.3388 4.42658 34.2371C2.66704 36.1353 1.39721 38.4341 0.727265 40.9342C0.0573152 43.4343 0.00746267 46.0601 0.582048 48.5838C1.15663 51.1075 2.33832 53.4528 4.02454 55.4165C2.3378 57.38 1.15576 59.7256 0.581008 62.2496C0.00625966 64.7735 0.0561555 67.3996 0.726398 69.8999C1.39664 72.4002 2.66696 74.6992 4.4271 76.5972C6.18723 78.4953 8.38403 79.9351 10.8268 80.7917C10.3476 83.3353 10.4965 85.9573 11.2605 88.4303C12.0245 90.9032 13.3805 93.1524 15.2108 94.9824C17.0411 96.8125 19.2904 98.1682 21.7635 98.9319C24.2366 99.6956 26.8586 99.8442 29.4021 99.3647C30.2595 101.807 31.6997 104.003 33.5979 105.763C35.4961 107.522 37.795 108.792 40.2951 109.462C42.7951 110.132 45.4209 110.182 47.9446 109.607C50.4683 109.032 52.8137 107.851 54.7774 106.165C56.7409 107.851 59.0865 109.033 61.6105 109.608C64.1344 110.183 66.7605 110.133 69.2608 109.463C71.7611 108.792 74.06 107.522 75.9581 105.762C77.8562 104.002 79.296 101.805 80.1526 99.3623C82.6962 99.8413 85.3183 99.6924 87.7913 98.9283C90.2643 98.1643 92.5135 96.8084 94.3438 94.9781C96.174 93.1479 97.53 90.8987 98.294 88.4257C99.058 85.9527 99.2069 83.3306 98.7279 80.787C101.17 79.9298 103.367 78.4896 105.126 76.5913C106.886 74.693 108.156 72.394 108.825 69.8938C109.495 67.3936 109.545 64.7676 108.97 62.2439C108.395 59.7202 107.212 57.375 105.525 55.4117Z" fill="#18C07A"/>
<path d="M44.9754 76.2513L29.8047 61.09C29.2289 60.5133 28.9055 59.7317 28.9055 58.9168C28.9055 58.1019 29.2289 57.3204 29.8047 56.7437L31.6478 54.8982C32.2245 54.3225 33.006 53.9991 33.8209 53.9991C34.6358 53.9991 35.4174 54.3225 35.9941 54.8982L47.022 65.919L72.9934 38.3197C73.5523 37.7268 74.3235 37.3798 75.138 37.3549C75.9524 37.3301 76.7434 37.6294 77.3374 38.1872L79.2302 39.9736C79.8238 40.5325 80.1713 41.3043 80.1961 42.1193C80.221 42.9343 79.9212 43.7258 79.3626 44.3199L49.3951 76.1826C49.1129 76.4834 48.7731 76.7243 48.396 76.891C48.0189 77.0578 47.6121 77.1471 47.1998 77.1535C46.7874 77.1599 46.378 77.0833 45.9959 76.9283C45.6138 76.7733 45.2667 76.5431 44.9754 76.2513Z" fill="white"/>
</g>
<defs>
<clipPath id="clip0_1_5252">
<rect width="109.186" height="109.186" fill="white" transform="translate(0.182373 0.821289)"/>
</clipPath>
</defs>
</svg>
